<?xml version="1.0" standalone="no"?>
<!DOCTYPE svg PUBLIC "-//W3C//DTD SVG 20010904//EN"
 "http://www.w3.org/TR/2001/REC-SVG-20010904/DTD/svg10.dtd">
<svg version="1.0" xmlns="http://www.w3.org/2000/svg"
 width="512.000000pt" height="512.000000pt" viewBox="0 0 512.000000 512.000000"
 preserveAspectRatio="xMidYMid meet">
<metadata>
Created by potrace 1.14, written by Peter Selinger 2001-2017
</metadata>
<g transform="translate(0.000000,512.000000) scale(0.100000,-0.100000)"
fill="#000000" stroke="none">
<path d="M3027 4794 c-1 -1 -33 -4 -72 -8 -419 -40 -858 -257 -1168 -580 -88
-92 -194 -228 -257 -331 -106 -172 -213 -443 -244 -620 -3 -16 -8 -41 -11 -54
-2 -13 -7 -49 -10 -80 -4 -31 -8 -67 -11 -81 -14 -82 -2 -360 21 -499 87 -514
392 -983 830 -1278 177 -118 455 -242 608 -269 17 -2 33 -7 37 -9 6 -4 48 -11
175 -31 58 -9 255 -16 281 -10 36 9 60 67 42 104 -19 38 -49 49 -158 56 -102
6 -101 6 -263 37 -836 156 -1410 860 -1411 1729 0 88 10 233 19 273 2 12 6 36
9 52 24 179 126 449 236 626 164 265 388 471 665 611 84 43 265 115 309 124
10 2 42 10 70 18 62 17 144 34 211 41 28 4 57 8 65 11 8 2 58 6 110 9 80 5 99
10 117 28 46 45 27 122 -32 132 -26 4 -162 4 -168 -1z"/>
<path d="M3168 4185 c-1 -1 -39 -6 -83 -10 -144 -12 -365 -65 -437 -105 -10
-6 -25 -10 -33 -10 -8 0 -15 -3 -15 -7 0 -5 -19 -16 -43 -26 -65 -26 -181
-107 -266 -183 -222 -199 -358 -460 -407 -779 -13 -88 -13 -343 0 -410 20 -98
30 -138 53 -210 75 -232 219 -446 398 -591 158 -128 348 -218 555 -262 84 -18
127 -24 260 -36 71 -7 118 36 105 94 -9 43 -42 60 -122 65 -79 6 -138 12 -173
20 -14 4 -38 9 -55 11 -53 10 -218 75 -288 115 -318 180 -533 494 -584 854
-16 109 -2 302 31 445 43 184 153 384 286 518 111 112 193 166 401 263 20 9
154 46 194 54 135 25 333 25 455 1 533 -106 876 -500 925 -1059 8 -84 21 -124
46 -137 31 -17 69 -11 95 15 23 23 25 32 23 105 -1 44 -8 115 -16 157 -8 43
-17 91 -19 107 -11 61 -67 204 -115 295 -84 158 -189 288 -318 395 -190 156
-375 242 -626 291 -16 3 -68 8 -115 11 -47 3 -90 7 -97 9 -6 2 -13 2 -15 0z"/>
<path d="M3078 3558 c-76 -10 -186 -48 -256 -90 -86 -50 -211 -180 -254 -263
-64 -124 -79 -181 -83 -320 -6 -201 76 -404 214 -528 170 -153 407 -212 651
-162 8 2 40 12 71 23 200 70 347 221 413 424 102 315 -10 637 -283 813 -138
89 -305 126 -473 103z m269 -184 c223 -72 364 -269 363 -509 0 -182 -90 -347
-243 -446 -86 -56 -160 -79 -273 -84 -200 -10 -401 107 -491 287 -43 86 -53
121 -59 208 -13 187 74 374 221 475 132 91 328 119 482 69z"/>
<path d="M668 2934 c-15 -8 -31 -26 -34 -40 -6 -25 1 -257 10 -304 3 -14 7
-45 10 -70 14 -123 52 -291 97 -430 155 -477 432 -878 840 -1215 103 -85 302
-211 456 -289 216 -108 509 -203 713 -231 25 -3 113 -17 140 -21 14 -2 88 -7
165 -10 138 -6 140 -6 162 18 12 13 23 33 24 43 8 78 -17 91 -186 99 -71 4
-141 8 -155 10 -14 3 -47 7 -74 11 -175 22 -439 98 -616 177 -127 56 -329 170
-415 233 -405 296 -687 659 -858 1102 -65 167 -127 418 -142 573 -3 36 -8 74
-10 85 -2 11 -4 64 -4 118 -1 95 -2 100 -30 128 -33 32 -53 35 -93 13z"/>
</g>
</svg>
